<?xml version="1.0" encoding="UTF-8"?>
<svg id="_Слой_1" data-name="Слой 1" xmlns="http://www.w3.org/2000/svg" viewBox="0 0 175.83 19.12">
  <defs>
    <style>
      .cls-1 {
        stroke-width: 0px;
      }
    </style>
  </defs>
  <path class="cls-1" d="m0,14.68c0-.44.14-.66.43-.66.15,0,.3.08.43.23.66.8,1.42,1.42,2.27,1.87.85.45,1.88.68,3.1.68,1.37,0,2.43-.27,3.18-.81.75-.54,1.13-1.28,1.13-2.2,0-.66-.24-1.2-.73-1.61-.49-.41-1.1-.76-1.86-1.04-.75-.29-1.56-.57-2.42-.86-.86-.29-1.67-.64-2.42-1.04-.75-.41-1.37-.94-1.86-1.61-.49-.66-.73-1.52-.73-2.58s.27-1.93.81-2.69c.54-.75,1.28-1.33,2.2-1.74.93-.41,1.99-.61,3.18-.61.91,0,1.73.08,2.47.23.74.15,1.42.38,2.04.66,1.1.4,1.52,1.06,1.26,1.99l-.17.66c-.04.22-.13.33-.27.33-.09,0-.25-.07-.5-.2-.69-.44-1.44-.79-2.27-1.04-.83-.25-1.7-.38-2.6-.38-1.04,0-1.9.23-2.58.7-.69.46-1.03,1.12-1.03,1.96,0,.69.24,1.24.73,1.66.49.42,1.1.77,1.86,1.04.75.28,1.56.56,2.42.85.86.29,1.67.62,2.42,1.01.75.39,1.37.9,1.86,1.54.49.64.73,1.47.73,2.49,0,1.68-.58,3.04-1.74,4.08-1.16,1.04-2.78,1.56-4.86,1.56-1.5,0-2.73-.24-3.7-.73-.96-.49-1.67-1.08-2.12-1.77-.45-.7-.68-1.34-.68-1.94Z"/>
  <path class="cls-1" d="m25.29,12.03v6.43c0,.2-.09.3-.27.3h-1.99c-.18,0-.27-.1-.27-.3V.63c0-.2.09-.3.27-.3h6.33c2.06,0,3.63.52,4.74,1.56,1.1,1.04,1.66,2.44,1.66,4.21s-.55,3.23-1.66,4.31c-1.1,1.08-2.61,1.62-4.51,1.62h-4.31Zm0-2.32h4.18c.6,0,1.18-.1,1.76-.3.57-.2,1.05-.56,1.42-1.08.38-.52.56-1.26.56-2.24,0-1.08-.34-1.92-1.03-2.52-.69-.6-1.56-.9-2.62-.9h-4.28v7.03Z"/>
  <path class="cls-1" d="m45.87,18.76c-.18,0-.27-.1-.27-.3V.63c0-.2.09-.3.27-.3h.23c1.35,0,2.02.78,2.02,2.35v15.78c0,.2-.09.3-.27.3h-1.99Z"/>
  <path class="cls-1" d="m69.77,14.19V.63c0-.2.09-.3.27-.3h.23c1.33,0,1.99.78,1.99,2.35v15.78c0,.2-.08.3-.23.3h-1.79c-.31,0-.55-.14-.73-.43l-7.95-12.93v13.06c0,.2-.09.3-.27.3h-1.99c-.18,0-.27-.1-.27-.3V.63c0-.2.09-.3.27-.3h.6c.64,0,1.11.12,1.41.36s.6.62.91,1.13l7.56,12.36Z"/>
  <path class="cls-1" d="m90.32,14.52h-8.45c-.18,0-.27-.09-.27-.27v-1.36c0-.22.02-.39.05-.51.03-.12.13-.29.28-.51l7.19-10.9c.11-.18.25-.33.43-.45.18-.12.41-.18.7-.18h1c.46,0,.84.12,1.13.36.29.24.43.65.43,1.23v10.31h1.19c.99,0,1.49.48,1.49,1.43v.53c0,.22-.12.33-.37.33h-2.32v3.94c0,.2-.08.3-.23.3h-1.99c-.18,0-.27-.1-.27-.3v-3.94Zm-6.1-2.29h6.1V2.98l-6.1,9.25Z"/>
  <path class="cls-1" d="m103.58,14.68c0-.44.14-.66.43-.66.15,0,.3.08.43.23.66.8,1.42,1.42,2.27,1.87.85.45,1.88.68,3.1.68,1.37,0,2.43-.27,3.18-.81.75-.54,1.13-1.28,1.13-2.2,0-.66-.24-1.2-.73-1.61-.49-.41-1.11-.76-1.86-1.04s-1.56-.57-2.42-.86c-.86-.29-1.67-.64-2.42-1.04s-1.37-.94-1.86-1.61c-.49-.66-.73-1.52-.73-2.58s.27-1.93.81-2.69c.54-.75,1.28-1.33,2.2-1.74.93-.41,1.99-.61,3.18-.61.91,0,1.73.08,2.47.23.74.15,1.42.38,2.04.66,1.11.4,1.53,1.06,1.26,1.99l-.17.66c-.04.22-.13.33-.26.33-.09,0-.25-.07-.5-.2-.69-.44-1.44-.79-2.27-1.04-.83-.25-1.7-.38-2.6-.38-1.04,0-1.9.23-2.59.7-.68.46-1.03,1.12-1.03,1.96,0,.69.24,1.24.73,1.66.49.42,1.1.77,1.86,1.04.75.28,1.56.56,2.42.85.86.29,1.67.62,2.42,1.01.75.39,1.37.9,1.86,1.54.49.64.73,1.47.73,2.49,0,1.68-.58,3.04-1.74,4.08-1.16,1.04-2.78,1.56-4.86,1.56-1.5,0-2.73-.24-3.7-.73-.96-.49-1.67-1.08-2.12-1.77-.45-.7-.68-1.34-.68-1.94Z"/>
  <path class="cls-1" d="m128.86,12.03v6.43c0,.2-.09.3-.27.3h-1.99c-.18,0-.27-.1-.27-.3V.63c0-.2.09-.3.27-.3h6.33c2.05,0,3.63.52,4.74,1.56,1.1,1.04,1.66,2.44,1.66,4.21s-.55,3.23-1.66,4.31c-1.11,1.08-2.61,1.62-4.51,1.62h-4.31Zm0-2.32h4.18c.6,0,1.18-.1,1.76-.3.57-.2,1.05-.56,1.42-1.08.38-.52.56-1.26.56-2.24,0-1.08-.34-1.92-1.03-2.52-.69-.6-1.56-.9-2.62-.9h-4.28v7.03Z"/>
  <path class="cls-1" d="m149.45,18.76c-.18,0-.27-.1-.27-.3V.63c0-.2.09-.3.27-.3h.23c1.35,0,2.02.78,2.02,2.35v15.78c0,.2-.09.3-.27.3h-1.99Z"/>
  <path class="cls-1" d="m173.34,14.19V.63c0-.2.09-.3.26-.3h.23c1.33,0,1.99.78,1.99,2.35v15.78c0,.2-.08.3-.23.3h-1.79c-.31,0-.55-.14-.73-.43l-7.95-12.93v13.06c0,.2-.09.3-.27.3h-1.99c-.18,0-.27-.1-.27-.3V.63c0-.2.09-.3.27-.3h.6c.64,0,1.11.12,1.41.36s.6.62.91,1.13l7.56,12.36Z"/>
</svg>